<?xml version="1.0" standalone="no"?>
<!DOCTYPE svg PUBLIC "-//W3C//DTD SVG 20010904//EN"
 "http://www.w3.org/TR/2001/REC-SVG-20010904/DTD/svg10.dtd">
<svg version="1.0" xmlns="http://www.w3.org/2000/svg"
 width="1024.000000pt" height="1024.000000pt" viewBox="0 0 1024.000000 1024.000000"
 preserveAspectRatio="xMidYMid meet">

<g transform="translate(0.000000,1024.000000) scale(0.100000,-0.100000)"
fill="#000000" stroke="none">
<path d="M3505 8290 c-494 -53 -924 -340 -1084 -724 -40 -95 -81 -271 -81
-346 0 -54 -1 -55 -43 -79 -192 -109 -346 -321 -404 -559 -22 -91 -26 -131
-27 -268 l-1 -161 -50 -38 c-113 -85 -193 -185 -254 -316 -174 -377 -53 -851
271 -1066 l36 -24 0 -152 c0 -175 16 -268 66 -393 74 -181 215 -347 363 -424
l40 -20 6 -78 c21 -251 123 -466 312 -657 152 -154 301 -245 515 -315 180 -59
284 -74 510 -74 216 -1 335 17 509 74 454 148 795 547 828 968 6 83 6 83 42
102 113 59 260 205 326 325 81 147 121 335 112 526 l-5 117 53 36 c70 49 173
157 223 235 174 269 170 641 -11 919 -61 93 -127 164 -199 211 l-60 41 -3 173
c-4 240 -39 372 -142 532 -84 129 -190 233 -289 283 l-41 21 -6 88 c-18 248
-128 475 -319 658 -304 293 -739 433 -1193 385z m351 -341 c108 -15 234 -53
333 -100 245 -116 423 -331 448 -541 l6 -48 -967 0 -966 0 0 23 c0 38 29 139
59 202 108 231 395 419 706 464 87 12 291 13 381 0z m931 -1064 c224 -76 353
-266 353 -522 l0 -83 -1461 0 -1461 0 7 93 c13 177 56 287 155 388 58 59 128
100 220 130 51 17 125 18 1083 18 l1028 1 76 -25z m376 -970 c226 -48 377
-238 377 -475 0 -214 -121 -384 -323 -454 l-62 -21 -1410 -2 c-775 0 -1453 3
-1506 7 -78 7 -108 14 -159 40 -122 61 -203 165 -235 301 -68 290 108 565 390
609 28 4 682 8 1455 9 1185 0 1416 -2 1473 -14z m-23 -1388 c0 -216 -93 -386
-262 -481 -124 -69 -72 -66 -1190 -66 -694 0 -1023 3 -1060 11 -87 18 -177 68
-244 134 -114 112 -161 251 -155 453 l1 42 1455 0 1455 0 0 -93z m-502 -954
c-32 -153 -165 -336 -321 -442 -77 -53 -229 -120 -334 -148 -92 -25 -111 -27
-318 -27 -206 0 -226 2 -316 26 -237 64 -439 206 -548 385 -39 63 -77 157 -86
212 l-7 41 970 0 970 0 -10 -47z"/>
<path d="M7171 8259 c-328 -64 -599 -316 -687 -639 -27 -96 -24 -320 4 -415
11 -38 19 -72 16 -76 -2 -4 -63 -52 -136 -107 -388 -294 -562 -430 -579 -454
-87 -124 -5 -297 141 -298 63 0 91 19 541 367 131 101 240 183 243 183 4 0 36
-22 71 -49 36 -28 93 -63 127 -80 69 -32 198 -71 238 -71 25 0 27 -7 99 -267
41 -148 76 -279 78 -293 3 -20 -7 -35 -55 -77 -124 -108 -220 -272 -256 -436
-4 -15 -12 -27 -19 -26 -7 1 -188 1 -402 0 l-391 -1 -41 -27 c-53 -34 -83 -87
-83 -146 0 -82 33 -135 105 -168 37 -17 72 -19 431 -19 l390 0 17 -72 c38
-156 153 -340 267 -423 35 -25 49 -42 46 -54 -15 -50 -97 -368 -112 -438 l-19
-83 -38 0 c-116 0 -297 -64 -414 -145 -57 -40 -69 -45 -87 -35 -12 6 -80 57
-152 113 -388 301 -458 354 -496 374 -97 53 -207 9 -253 -101 -21 -49 -13
-111 18 -158 21 -31 277 -239 542 -440 71 -54 119 -98 119 -107 -1 -9 -12 -52
-25 -96 -19 -68 -23 -103 -23 -230 1 -134 4 -159 28 -240 92 -304 315 -516
632 -601 97 -26 321 -26 419 0 320 85 561 328 636 643 28 116 23 301 -11 408
-69 217 -221 402 -409 498 -47 24 -96 46 -108 49 -22 6 -21 7 35 227 53 205
59 222 77 216 11 -3 65 -8 120 -11 184 -11 368 38 522 138 483 315 558 952
159 1351 -180 181 -424 276 -671 263 -60 -3 -122 -8 -136 -12 -25 -6 -25 -5
-83 208 -32 117 -59 219 -60 227 0 8 19 21 49 31 367 127 623 512 575 868 -13
95 -38 177 -83 267 -114 228 -348 405 -609 459 -82 17 -234 19 -307 5z m258
-354 c147 -35 274 -137 338 -271 33 -69 38 -89 41 -172 5 -116 -15 -198 -67
-280 -101 -156 -273 -240 -466 -229 -109 6 -183 30 -265 88 -241 169 -268 514
-56 724 130 129 303 180 475 140z m570 -2080 c204 -48 359 -216 391 -424 52
-333 -257 -635 -596 -583 -114 18 -195 61 -285 151 -110 111 -159 222 -159
366 0 140 46 251 146 350 131 130 321 182 503 140z m-584 -2106 c81 -25 168
-82 232 -153 134 -147 163 -342 78 -524 -81 -172 -260 -282 -460 -282 -142 0
-249 45 -357 151 -202 198 -207 490 -12 687 134 135 328 180 519 121z"/>
</g>
</svg>
